<?xml version="1.0" standalone="no"?>
<!DOCTYPE svg PUBLIC "-//W3C//DTD SVG 20010904//EN"
 "http://www.w3.org/TR/2001/REC-SVG-20010904/DTD/svg10.dtd">
<svg version="1.0" xmlns="http://www.w3.org/2000/svg"
 width="1600.000000pt" height="1600.000000pt" viewBox="0 0 1600.000000 1600.000000"
 preserveAspectRatio="xMidYMid meet">
<metadata>
Created by potrace 1.11, written by Peter Selinger 2001-2013
</metadata>
<g transform="translate(0.000000,1600.000000) scale(0.100000,-0.100000)"
fill="#000000" stroke="none">
<path d="M7716 15255 c-3 -8 -2 -25 3 -38 13 -35 126 -212 205 -322 95 -133
176 -262 168 -269 -3 -3 -24 -6 -47 -6 -65 0 -191 -36 -295 -85 -52 -24 -140
-56 -195 -71 -115 -30 -246 -80 -357 -135 -90 -45 -125 -48 -243 -19 -169 40
-304 116 -464 260 -89 79 -118 123 -166 245 -7 16 -9 17 -12 4 -8 -32 27 -164
64 -243 50 -106 192 -295 319 -423 l101 -102 -101 -90 c-100 -90 -275 -226
-342 -267 -18 -11 -67 -28 -108 -38 -152 -36 -437 -198 -546 -312 -25 -25 -40
-45 -35 -42 6 2 49 23 96 46 82 41 232 82 303 82 28 0 27 -1 -34 -67 -192
-204 -496 -655 -644 -954 -161 -323 -235 -620 -250 -1004 -6 -153 2 -149 29
14 24 147 50 230 108 353 60 125 175 304 232 358 l37 35 -18 -40 c-99 -223
-134 -459 -99 -672 18 -114 40 -173 106 -287 28 -49 64 -128 81 -175 42 -121
90 -208 159 -290 33 -39 63 -71 67 -71 4 -1 30 -22 58 -48 l52 -47 -19 -70
c-25 -96 -24 -206 2 -291 24 -78 74 -167 115 -204 l27 -25 -32 55 c-113 193
-136 327 -81 485 12 33 24 69 26 80 11 40 15 48 19 43 7 -7 28 -136 70 -433
54 -380 128 -650 246 -894 110 -229 195 -352 432 -622 161 -184 269 -290 378
-372 119 -89 323 -213 396 -240 88 -32 246 -67 303 -67 61 0 90 -9 91 -29 1
-9 4 -3 8 14 3 16 3 73 -1 125 -4 52 -3 183 2 290 5 107 10 236 10 287 0 103
7 111 75 99 33 -7 56 6 35 19 -6 4 -32 10 -58 13 l-47 7 -5 120 -6 120 -3
-125 c-2 -69 -4 -177 -5 -240 -1 -63 -6 -242 -11 -398 l-8 -283 -71 7 c-98 9
-286 57 -361 93 -234 109 -482 316 -746 622 -271 313 -378 492 -488 811 -57
168 -86 302 -131 618 -23 157 -53 355 -67 440 -20 121 -26 192 -27 325 l-1
171 75 69 c41 38 120 116 174 173 85 88 112 109 181 142 87 43 228 94 286 105
l36 7 6 -164 c3 -94 11 -175 18 -190 9 -20 29 -33 82 -53 38 -14 71 -24 73
-22 2 2 11 53 19 113 14 100 52 310 61 343 4 11 24 12 111 7 59 -4 111 -10
115 -12 5 -3 8 -30 8 -61 0 -81 28 -384 46 -488 8 -49 26 -127 39 -171 l25
-81 47 -6 c27 -3 97 -12 158 -21 60 -8 110 -14 111 -13 1 1 7 211 13 467 6
256 18 531 26 612 17 177 54 471 60 477 3 2 5 -104 5 -235 0 -343 28 -643 91
-987 18 -96 47 -179 69 -192 10 -6 18 235 31 955 9 492 14 641 25 661 10 21
25 28 71 38 286 57 542 39 923 -66 372 -101 721 -361 968 -720 12 -17 22 -36
22 -43 0 -6 19 -46 42 -88 41 -74 82 -160 153 -324 37 -85 95 -275 95 -312 0
-54 33 -208 64 -301 18 -55 47 -149 65 -210 17 -60 46 -164 65 -230 120 -418
154 -598 163 -845 6 -196 -4 -279 -57 -439 -37 -116 -77 -193 -161 -317 -128
-188 -326 -373 -517 -484 -51 -29 -90 -55 -88 -58 9 -9 181 90 266 154 113 83
280 257 358 372 115 168 192 362 222 557 l11 70 67 28 c97 40 226 141 338 265
117 129 159 185 238 317 38 62 88 127 132 171 198 197 333 515 335 791 0 119
18 78 28 -67 l7 -105 8 89 c9 94 5 183 -16 351 -8 57 -11 148 -8 210 3 61 5
227 4 370 l0 260 115 28 c127 30 248 82 384 165 87 53 197 145 197 164 0 7 -4
7 -12 1 -7 -6 -38 -19 -68 -30 -48 -18 -67 -19 -155 -12 -128 11 -251 34 -340
64 -63 21 -285 112 -294 120 -1 2 -16 68 -33 146 -57 277 -114 416 -286 703
-113 189 -213 318 -330 428 -92 87 -238 196 -326 244 -45 25 -64 39 -55 44 8
4 61 19 119 34 57 15 137 44 177 63 71 35 164 105 153 116 -3 3 -44 -5 -90
-19 -128 -39 -235 -36 -418 9 -105 26 -161 46 -215 76 -224 127 -413 208 -647
276 -176 51 -298 68 -447 62 l-123 -5 57 67 c32 36 96 107 143 156 83 87 127
155 115 175 -9 15 -47 12 -91 -6 -82 -33 -360 -218 -488 -325 l-100 -82 -20
28 c-74 101 -183 230 -238 279 -176 159 -433 287 -661 331 -97 19 -103 19
-111 0z m3194 -1779 c0 -7 7 -45 16 -84 15 -68 17 -71 47 -75 l32 -3 -30 -8
-30 -7 2 -77 2 -77 -14 60 c-8 33 -17 70 -20 83 -4 15 -13 22 -30 22 -14 0
-25 5 -25 10 0 6 11 10 25 10 21 0 25 4 21 23 -12 58 -15 137 -6 137 5 0 10
-6 10 -14z m-4568 -104 c3 -37 12 -81 21 -99 16 -30 15 -35 -16 -132 -17 -56
-36 -100 -42 -98 -5 2 -13 21 -16 43 -7 49 -30 114 -41 114 -4 0 -8 12 -8 26
0 14 4 23 10 19 5 -3 21 34 35 82 15 48 28 94 30 101 11 31 23 6 27 -56z
m4408 38 c0 -11 -7 -20 -15 -20 -8 0 -15 2 -15 4 0 2 -3 11 -6 20 -4 12 0 16
15 16 14 0 21 -6 21 -20z m-338 -102 c-7 -7 -12 -8 -12 -2 0 14 12 26 19 19 2
-3 -1 -11 -7 -17z m-4352 -42 c0 -3 -4 -8 -10 -11 -5 -3 -10 -1 -10 4 0 6 5
11 10 11 6 0 10 -2 10 -4z m4540 -52 c0 -16 -16 -19 -25 -4 -8 13 4 32 16 25
5 -4 9 -13 9 -21z m-4042 -29 c-4 -27 -1 -46 6 -50 8 -3 7 -7 -1 -11 -7 -3
-13 -18 -13 -32 0 -15 -5 -34 -10 -42 -7 -11 -10 -4 -10 28 0 31 -4 42 -15 42
-8 0 -15 5 -15 10 0 6 9 10 20 10 14 0 20 7 20 23 0 27 11 67 17 67 3 0 3 -20
1 -45z m4222 -77 c0 -55 1 -58 25 -58 14 0 25 -4 25 -10 0 -5 -12 -10 -26 -10
-24 0 -26 -2 -24 -47 3 -62 2 -78 -7 -69 -4 3 -8 68 -10 144 -3 95 -1 132 6
122 6 -8 11 -41 11 -72z m-4060 38 c0 -3 -4 -8 -10 -11 -5 -3 -10 -1 -10 4 0
6 5 11 10 11 6 0 10 -2 10 -4z m3500 -5 c0 -14 -18 -23 -31 -15 -8 4 -7 9 2
15 18 11 29 11 29 0z m914 -96 c9 -8 8 -14 -6 -27 -22 -22 -26 -14 -19 47 4
38 6 43 9 20 2 -16 9 -34 16 -40z m-4984 -15 c0 -5 -4 -10 -10 -10 -5 0 -10 5
-10 10 0 6 5 10 10 10 6 0 10 -4 10 -10z m4310 -46 c0 -8 -7 -14 -15 -14 -15
0 -21 21 -9 33 10 9 24 -2 24 -19z m-4103 -89 c-2 -33 -19 -46 -32 -25 -3 6
-2 10 3 10 6 0 13 11 16 25 9 36 16 31 13 -10z m4603 -30 c0 -8 -4 -15 -10
-15 -5 0 -10 7 -10 15 0 8 5 15 10 15 6 0 10 -7 10 -15z m-4890 -59 c0 -3 -4
-8 -10 -11 -5 -3 -10 -1 -10 4 0 6 5 11 10 11 6 0 10 -2 10 -4z m5140 -67 c0
-5 -7 -9 -15 -9 -15 0 -20 12 -9 23 8 8 24 -1 24 -14z m-3851 -269 c-16 -96
-38 -240 -49 -320 -11 -80 -26 -194 -35 -255 -8 -60 -15 -148 -15 -194 l0 -83
-30 6 c-17 3 -66 9 -110 12 -95 8 -91 -2 -54 157 46 198 94 359 151 502 51
130 161 360 168 353 2 -2 -10 -82 -26 -178z m-1794 -381 c-40 -150 -49 -250
-42 -487 3 -119 13 -262 22 -316 8 -55 13 -101 11 -103 -8 -9 -66 171 -82 254
-24 129 -15 354 19 483 24 92 86 265 92 258 2 -2 -7 -42 -20 -89z m1220 -240
c-8 -74 -15 -157 -15 -186 l0 -52 -42 -11 c-80 -21 -193 -62 -250 -91 -32 -16
-58 -27 -58 -25 0 3 46 63 103 133 56 71 140 183 187 250 47 66 86 120 88 118
1 -1 -5 -62 -13 -136z m4967 -966 c-9 -193 -74 -411 -174 -576 -48 -81 -119
-179 -125 -173 -2 1 35 91 81 198 88 206 162 417 193 556 10 45 20 82 24 82 3
0 4 -39 1 -87z m-672 -848 c0 -36 3 -45 18 -45 16 -1 16 -1 0 -14 -10 -7 -19
-26 -19 -42 -2 -27 -2 -27 -6 -4 -3 14 -12 29 -20 34 -12 7 -13 10 -2 17 8 5
12 24 10 53 -1 28 2 46 8 46 6 0 11 -20 11 -45z m-150 -155 c0 -5 -5 -10 -11
-10 -5 0 -7 5 -4 10 3 6 8 10 11 10 2 0 4 -4 4 -10z m76 -60 c12 0 12 -4 -3
-24 -22 -30 -26 -27 -25 21 0 51 4 64 9 31 3 -16 11 -28 19 -28z"/>
<path d="M6293 13288 c-23 -63 -23 -63 -4 -112 l18 -49 26 57 c24 52 25 60 13
89 -8 18 -18 42 -22 55 -8 20 -12 15 -31 -40z"/>
<path d="M6600 11146 c-89 -23 -289 -154 -369 -240 -31 -33 -24 -33 48 4 68
34 174 65 257 76 52 6 56 5 51 -12 -9 -31 -25 -97 -30 -130 -5 -28 -4 -30 21
-26 35 5 63 -25 64 -69 2 -60 -70 -91 -112 -49 -24 24 -25 45 -5 85 l15 30
-20 -24 c-25 -29 -26 -71 -1 -102 14 -18 20 -50 25 -134 8 -123 46 -309 76
-369 11 -22 18 -41 16 -43 -10 -10 -127 84 -165 131 -24 31 -46 56 -48 56 -16
0 61 -111 103 -149 134 -123 404 -192 529 -136 37 17 38 19 15 23 -38 6 -44
17 -16 35 13 9 46 51 72 94 26 43 61 91 77 106 23 22 28 33 23 55 -4 15 -6 41
-4 57 6 61 3 251 -4 283 -7 31 -6 32 13 21 22 -11 49 -6 49 10 0 19 -101 132
-165 184 -75 62 -290 185 -388 222 -77 28 -67 28 -127 11z m117 -462 c3 -8 -2
-23 -11 -32 -15 -15 -17 -15 -32 0 -21 21 -11 48 16 48 11 0 23 -7 27 -16z
m489 -315 c25 -28 8 -54 -37 -54 -28 0 -35 4 -37 24 -3 15 3 30 14 38 25 18
38 16 60 -8z"/>
<path d="M8955 11091 l40 -6 -57 -12 c-209 -44 -401 -254 -440 -480 -18 -106
-2 -202 52 -311 177 -357 763 -590 1041 -414 55 36 111 102 141 168 30 68 36
208 13 329 -34 182 -101 307 -246 456 -174 178 -369 280 -529 277 -52 -1 -53
-1 -15 -7z m99 -467 c47 -47 -24 -126 -80 -89 -29 19 -30 44 -3 79 23 29 60
34 83 10z m44 -97 c2 -10 -3 -17 -12 -17 -18 0 -29 16 -21 31 9 14 29 6 33
-14z m222 -137 c24 -24 25 -34 4 -54 -18 -19 -75 -21 -92 -4 -19 19 -14 45 10
62 30 21 54 20 78 -4z"/>
<path d="M7944 10765 c0 -55 1 -76 3 -47 2 29 2 74 0 100 -2 26 -3 2 -3 -53z"/>
<path d="M7939 10613 c-1 -27 -3 -69 -4 -96 -1 -26 1 -50 5 -52 5 -3 9 40 9
95 0 100 -8 142 -10 53z"/>
<path d="M7937 10235 c3 -44 7 -82 9 -84 9 -10 3 135 -6 149 -7 10 -8 -12 -3
-65z"/>
<path d="M7938 10091 c-5 -18 -8 -43 -8 -55 1 -19 2 -19 11 -3 6 9 9 34 7 55
l-3 37 -7 -34z"/>
<path d="M7930 9946 c0 -25 5 -46 10 -46 6 0 10 18 10 39 0 22 -4 43 -10 46
-6 4 -10 -12 -10 -39z"/>
<path d="M7910 9872 c-51 -34 -52 -53 -6 -96 18 -17 36 -38 39 -46 4 -11 6 -9
6 6 1 11 15 30 32 43 39 29 37 67 -6 92 -37 22 -35 22 -65 1z"/>
<path d="M7942 9625 c0 -16 2 -22 5 -12 2 9 2 23 0 30 -3 6 -5 -1 -5 -18z"/>
<path d="M7943 9535 c0 -27 2 -38 4 -22 2 15 2 37 0 50 -2 12 -4 0 -4 -28z"/>
<path d="M7942 9405 c0 -16 2 -22 5 -12 2 9 2 23 0 30 -3 6 -5 -1 -5 -18z"/>
<path d="M7935 9298 c-3 -18 -2 -51 3 -73 8 -36 9 -32 8 32 -1 40 -2 73 -3 73
-1 0 -5 -15 -8 -32z"/>
<path d="M7931 9094 c0 -11 3 -14 6 -6 3 7 2 16 -1 19 -3 4 -6 -2 -5 -13z"/>
<path d="M4360 8988 c1 -125 51 -366 141 -681 32 -114 59 -210 59 -213 0 -3
-33 28 -72 69 -79 81 -108 94 -180 82 -54 -9 -116 -71 -161 -162 -34 -68 -67
-177 -67 -224 0 -24 -16 -57 -23 -49 -2 3 -18 26 -35 51 -40 60 -104 116 -161
142 -58 27 -161 28 -208 4 -75 -39 -123 -137 -123 -251 -1 -57 -2 -60 -16 -41
-25 33 -94 149 -101 168 -10 32 -24 17 -18 -20 20 -114 55 -238 132 -458 58
-165 69 -203 60 -211 -5 -5 -42 19 -125 82 -2 1 -12 37 -23 79 -39 157 -138
289 -258 347 -54 26 -78 31 -136 31 -88 0 -136 -15 -203 -65 -55 -41 -56 -41
-66 22 -17 98 -112 222 -201 261 -146 65 -280 37 -390 -83 -60 -65 -95 -143
-95 -213 0 -71 74 -283 185 -530 61 -138 167 -345 198 -387 37 -52 94 -118
102 -118 12 0 4 150 -10 199 -9 28 -36 95 -60 148 -25 52 -45 101 -45 107 0 7
30 37 68 66 105 86 165 152 201 224 18 36 36 66 40 66 4 0 15 18 25 40 21 49
79 107 123 126 85 36 209 1 276 -77 38 -44 74 -106 66 -113 -3 -3 -21 -1 -40
4 -18 6 -57 10 -85 10 -177 0 -278 -121 -275 -332 2 -137 64 -249 165 -298 53
-25 162 -28 209 -4 86 43 158 132 192 235 14 40 21 49 34 44 9 -4 35 -10 59
-12 35 -5 50 -1 73 16 32 24 59 22 59 -3 0 -9 11 -23 24 -31 19 -13 28 -14 50
-4 15 7 29 22 32 35 3 12 -12 78 -35 150 -106 338 -120 636 -32 684 54 29 143
-8 203 -84 22 -28 93 -157 157 -286 120 -243 158 -305 193 -316 26 -8 38 10
38 59 0 20 3 37 8 37 4 -1 32 -9 62 -20 30 -11 78 -19 106 -20 103 0 230 57
295 133 l26 30 32 -22 c43 -31 77 -22 97 24 8 21 12 46 8 62 -6 24 -5 26 17
19 84 -23 120 -27 174 -17 112 21 191 82 243 187 14 30 30 54 34 54 4 0 26
-20 48 -44 41 -44 116 -90 132 -80 15 10 8 59 -16 109 -13 28 -51 82 -84 121
-59 69 -61 74 -76 162 -19 108 -47 175 -109 259 -90 121 -229 204 -354 211
-39 2 -87 -1 -106 -7 -46 -15 -121 -82 -137 -121 -7 -17 -17 -29 -23 -27 -6 2
-33 68 -59 148 -107 318 -203 549 -228 549 -6 0 -10 -15 -10 -32z m639 -653
c89 -43 185 -135 224 -215 28 -58 39 -107 22 -102 -5 1 -44 14 -85 28 -146 51
-265 32 -343 -55 -22 -24 -42 -39 -47 -35 -13 15 -70 201 -70 230 0 56 65 154
115 175 46 18 110 9 184 -26z m-586 -224 c21 -20 61 -70 88 -111 63 -95 209
-384 209 -414 0 -12 -15 -40 -34 -62 -82 -96 -232 -132 -333 -81 -177 90 -226
429 -93 637 36 55 74 82 105 73 11 -3 37 -22 58 -42z m639 -172 c29 -6 88 -27
131 -46 70 -33 77 -39 77 -65 0 -40 -22 -88 -60 -132 -40 -45 -56 -54 -115
-65 -134 -25 -239 71 -219 200 8 47 53 105 87 112 38 7 45 7 99 -4z m-2556
-108 c52 -24 108 -90 124 -146 20 -71 9 -162 -28 -238 -31 -62 -170 -228 -196
-235 -25 -6 -216 411 -216 472 0 29 84 120 135 146 50 25 126 26 181 1z m658
-575 c25 -8 69 -29 96 -46 56 -36 56 -36 17 -144 -66 -187 -247 -189 -272 -5
-16 114 25 194 106 208 3 1 27 -5 53 -13z"/>
<path d="M7722 8719 c3 -8 18 -15 34 -17 33 -4 24 11 -15 23 -17 5 -22 4 -19
-6z"/>
<path d="M9580 8044 c-63 -25 -154 -56 -201 -69 -47 -12 -96 -28 -107 -34 -32
-17 -152 -41 -312 -61 -133 -18 -137 -19 -50 -14 88 5 258 26 323 40 l28 6 -2
-191 -1 -192 33 -67 c39 -81 120 -163 208 -212 108 -61 389 -256 390 -271 1
-4 -41 -38 -91 -75 -51 -38 -156 -119 -233 -180 -77 -61 -197 -152 -267 -203
-71 -51 -128 -95 -128 -99 0 -4 -22 -22 -50 -41 -27 -19 -47 -37 -45 -41 3 -5
-19 -22 -48 -38 -30 -17 -92 -64 -139 -105 -48 -41 -106 -88 -130 -105 -73
-50 -257 -253 -321 -352 -19 -30 -48 -71 -64 -91 -16 -20 -40 -58 -53 -83 -14
-25 -29 -46 -34 -46 -14 0 -35 33 -36 54 0 10 -20 56 -44 101 -25 44 -56 115
-70 157 -28 88 -165 451 -196 523 -31 70 -70 204 -70 241 0 17 -13 114 -29
215 -16 101 -32 213 -36 249 l-7 65 79 44 c43 25 103 61 133 81 30 21 80 50
110 65 138 69 237 163 287 272 21 45 28 78 31 147 l5 88 -29 -5 c-16 -3 -99
-9 -184 -12 -198 -8 -318 -27 -450 -71 -187 -63 -206 -77 -487 -362 -229 -233
-256 -264 -293 -337 -59 -118 -69 -209 -58 -580 1 -35 -13 -96 -46 -199 -61
-197 -107 -378 -151 -611 -20 -104 -61 -276 -91 -382 -106 -376 -214 -845
-319 -1388 -62 -324 -124 -614 -292 -1369 -71 -319 -102 -447 -238 -976 -30
-118 -71 -298 -90 -400 -56 -289 -91 -464 -125 -609 -16 -74 -29 -136 -27
-138 10 -10 325 -99 522 -148 605 -150 1136 -219 1770 -232 975 -19 1963 145
2868 477 l87 32 -5 47 c-32 259 -99 1197 -140 1951 -62 1132 -164 2592 -220
3137 -16 155 -19 269 -7 276 4 3 37 8 73 11 66 7 66 7 77 -21 30 -78 147
-1015 201 -1618 43 -471 84 -1085 116 -1710 8 -170 20 -386 25 -480 6 -93 15
-251 20 -350 20 -361 71 -1024 86 -1113 7 -43 5 -43 206 46 136 61 153 71 156
94 2 14 -15 212 -37 440 -23 227 -59 613 -81 858 -97 1083 -140 1515 -230
2350 -22 201 -58 532 -80 735 -22 204 -47 424 -55 490 -8 66 -17 155 -21 198
l-7 77 49 0 c65 0 94 9 95 29 6 96 188 -1172 269 -1869 50 -429 87 -806 150
-1510 76 -854 92 -1013 137 -1397 l37 -313 154 81 c214 111 200 100 191 157
-4 26 -8 115 -8 198 -2 290 -33 549 -115 931 -55 257 -97 481 -136 726 -51
317 -169 891 -245 1197 -16 65 -25 140 -30 235 -16 355 -58 783 -96 986 -36
199 -144 540 -210 671 l-19 38 51 36 c55 40 99 100 99 136 0 13 -11 42 -24 65
-14 24 -46 96 -71 160 -26 65 -91 208 -145 318 -54 111 -100 220 -104 244 -8
49 -62 202 -110 306 -60 130 -103 160 -326 233 -179 59 -350 136 -377 169 -12
16 -37 48 -55 72 -46 62 -114 108 -186 126 -33 9 -133 19 -223 23 l-162 7 59
24 c88 37 180 80 169 80 -5 0 -62 -21 -125 -45z m1450 -2014 c0 -5 -2 -10 -4
-10 -3 0 -8 5 -11 10 -3 6 -1 10 4 10 6 0 11 -4 11 -10z m-107 -27 c-7 -2 -19
-2 -25 0 -7 3 -2 5 12 5 14 0 19 -2 13 -5z m-26 -50 c-3 -10 -5 -4 -5 12 0 17
2 24 5 18 2 -7 2 -21 0 -30z m-4950 -3935 c-3 -8 -6 -5 -6 6 -1 11 2 17 5 13
3 -3 4 -12 1 -19z"/>
<path d="M7988 7873 c7 -3 16 -2 19 1 4 3 -2 6 -13 5 -11 0 -14 -3 -6 -6z"/>
<path d="M8420 7860 c0 -5 14 -10 32 -10 36 0 35 4 -4 14 -17 4 -28 2 -28 -4z"/>
<path d="M8060 6470 c8 -5 20 -10 25 -10 6 0 3 5 -5 10 -8 5 -19 10 -25 10 -5
0 -3 -5 5 -10z"/>
<path d="M8100 6455 c0 -9 160 -54 250 -69 52 -9 156 -18 230 -20 l135 -5
-125 10 c-169 12 -312 35 -406 64 -89 28 -84 27 -84 20z"/>
<path d="M8828 6373 c6 -2 18 -2 25 0 6 3 1 5 -13 5 -14 0 -19 -2 -12 -5z"/>
</g>
</svg>
